<svg width="21" height="21" viewBox="0 0 21 21" fill="none" xmlns="http://www.w3.org/2000/svg">
<path d="M13.8333 20.5V12.0787C13.8333 11.7995 13.7163 11.5318 13.5079 11.3344C13.2995 11.137 13.0169 11.0261 12.7222 11.0261H8.27778C7.98309 11.0261 7.70048 11.137 7.4921 11.3344C7.28373 11.5318 7.16667 11.7995 7.16667 12.0787V20.5" fill="white"/>
<path d="M0.5 8.92074C0.499923 8.61448 0.570371 8.3119 0.706431 8.0341C0.842491 7.75629 1.04089 7.50996 1.28778 7.31227L9.06556 0.997361C9.46665 0.676203 9.97484 0.5 10.5 0.5C11.0252 0.5 11.5333 0.676203 11.9344 0.997361L19.7122 7.31227C19.9591 7.50996 20.1575 7.75629 20.2936 8.0341C20.4296 8.3119 20.5001 8.61448 20.5 8.92074V18.3947C20.5 18.953 20.2659 19.4885 19.8491 19.8834C19.4324 20.2782 18.8671 20.5 18.2778 20.5H2.72222C2.13285 20.5 1.56762 20.2782 1.15087 19.8834C0.734126 19.4885 0.5 18.953 0.5 18.3947V8.92074Z" fill="white"/>
<path d="M13.8333 20.5V12.0787C13.8333 11.7995 13.7163 11.5318 13.5079 11.3344C13.2995 11.137 13.0169 11.0261 12.7222 11.0261H8.27778C7.98309 11.0261 7.70048 11.137 7.4921 11.3344C7.28373 11.5318 7.16667 11.7995 7.16667 12.0787V20.5M0.5 8.92074C0.499923 8.61448 0.570371 8.3119 0.706431 8.0341C0.842491 7.75629 1.04089 7.50996 1.28778 7.31227L9.06556 0.997361C9.46665 0.676203 9.97484 0.5 10.5 0.5C11.0252 0.5 11.5333 0.676203 11.9344 0.997361L19.7122 7.31227C19.9591 7.50996 20.1575 7.75629 20.2936 8.0341C20.4296 8.3119 20.5001 8.61448 20.5 8.92074V18.3947C20.5 18.953 20.2659 19.4885 19.8491 19.8834C19.4324 20.2782 18.8671 20.5 18.2778 20.5H2.72222C2.13285 20.5 1.56762 20.2782 1.15087 19.8834C0.734126 19.4885 0.5 18.953 0.5 18.3947V8.92074Z" stroke="black" stroke-linecap="round" stroke-linejoin="round"/>
</svg>
