<svg width="14" height="14" viewBox="0 0 14 14" fill="none" xmlns="http://www.w3.org/2000/svg">
<path d="M7 10H2.2C1.88174 10 1.57652 9.84196 1.35147 9.56066C1.12643 9.27935 1 8.89782 1 8.5V2.5C1 2.10218 1.12643 1.72064 1.35147 1.43934C1.57652 1.15804 1.88174 1 2.2 1H11.8C12.1183 1 12.4235 1.15804 12.6485 1.43934C12.8736 1.72064 13 2.10218 13 2.5V6.25M10.6 5.5H10.606M11.2 13V8.5M11.2 8.5L13 10.75M11.2 8.5L9.4 10.75M3.4 5.5H3.406M8.2 5.5C8.2 6.32843 7.66274 7 7 7C6.33726 7 5.8 6.32843 5.8 5.5C5.8 4.67157 6.33726 4 7 4C7.66274 4 8.2 4.67157 8.2 5.5Z" stroke="#008000" stroke-width="2" stroke-linecap="round" stroke-linejoin="round"/>
</svg>
