<svg width="22" height="22" viewBox="0 0 22 22" fill="none" xmlns="http://www.w3.org/2000/svg">
<path d="M18.7778 1H3.22222C1.99492 1 1 1.99492 1 3.22222V18.7778C1 20.0051 1.99492 21 3.22222 21H18.7778C20.0051 21 21 20.0051 21 18.7778V3.22222C21 1.99492 20.0051 1 18.7778 1Z" fill="white"/>
<path d="M6 1V21V1Z" fill="white"/>
<path d="M11 1V21V1Z" fill="white"/>
<path d="M16 1V21V1Z" fill="white"/>
<path d="M6 1V21M11 1V21M16 1V21M3.22222 1H18.7778C20.0051 1 21 1.99492 21 3.22222V18.7778C21 20.0051 20.0051 21 18.7778 21H3.22222C1.99492 21 1 20.0051 1 18.7778V3.22222C1 1.99492 1.99492 1 3.22222 1Z" stroke="black" stroke-width="2" stroke-linecap="round" stroke-linejoin="round"/>
</svg>
