<svg width="14" height="14" viewBox="0 0 14 14" fill="none" xmlns="http://www.w3.org/2000/svg">
<path d="M7.83995 1.00009H3.39998C3.08172 1.00009 2.7765 1.12652 2.55146 1.35156C2.32642 1.5766 2.19999 1.88182 2.19999 2.20008V11.8C2.19999 12.1183 2.32642 12.4235 2.55146 12.6485C2.7765 12.8736 3.08172 13 3.39998 13H10.5999C10.9182 13 11.2234 12.8736 11.4485 12.6485C11.6735 12.4235 11.7999 12.1183 11.7999 11.8V7.36004M1 3.40007H3.39998M1 5.80005H3.39998M1 8.20004H3.39998M1 10.6H3.39998M12.6267 3.17567C12.8657 2.93666 13 2.61249 13 2.27448C13 1.93647 12.8657 1.6123 12.6267 1.37329C12.3877 1.13428 12.0635 1 11.7255 1C11.3875 1 11.0633 1.13428 10.8243 1.37329L7.81835 4.38046C7.6757 4.52304 7.57128 4.69926 7.51475 4.89286L7.01256 6.61485C6.9975 6.66648 6.99659 6.7212 7.00994 6.7733C7.02329 6.8254 7.05039 6.87295 7.08842 6.91098C7.12645 6.94901 7.174 6.97611 7.2261 6.98946C7.2782 7.00281 7.33292 7.0019 7.38455 6.98684L9.10654 6.48465C9.30014 6.42812 9.47636 6.3237 9.61894 6.18105L12.6267 3.17567Z" stroke="#009ACD" stroke-width="2" stroke-linecap="round" stroke-linejoin="round"/>
</svg>
