<svg width="14" height="14" viewBox="0 0 14 14" fill="none" xmlns="http://www.w3.org/2000/svg">
<path d="M5.2 11.7368H2.2C1.88174 11.7368 1.57652 11.6038 1.35147 11.3669C1.12643 11.13 1 10.8087 1 10.4737V2.26321C1 1.9282 1.12643 1.60692 1.35147 1.37003C1.57652 1.13314 1.88174 1.00006 2.2 1.00006H4.54C4.74069 0.99799 4.93867 1.04894 5.11582 1.14824C5.29297 1.24754 5.44362 1.39203 5.554 1.56848L6.04 2.32637C6.14927 2.50102 6.29802 2.64438 6.4729 2.74359C6.64779 2.8428 6.84333 2.89475 7.042 2.89479H11.8C12.1183 2.89479 12.4235 3.02787 12.6485 3.26476C12.8736 3.50164 13 3.82293 13 4.15794V4.47373M7 5.42109V7.94739M7 7.94739H9.4M7 7.94739L7.921 6.93371C8.26542 6.58528 8.68392 6.32845 9.14166 6.18461C9.5994 6.04077 10.0832 6.01408 10.5527 6.10674C11.0222 6.19941 11.4639 6.40877 11.8411 6.71739C12.2182 7.02601 12.5199 7.42497 12.721 7.88108M13 13V10.4737M13 10.4737H10.6M13 10.4737L12.079 11.4874C11.7346 11.8358 11.3161 12.0926 10.8583 12.2365C10.4006 12.3803 9.91684 12.407 9.44732 12.3143C8.9778 12.2217 8.53609 12.0123 8.15894 11.7037C7.78179 11.3951 7.48011 10.9961 7.279 10.54" stroke="#009ACD" stroke-width="2" stroke-linecap="round" stroke-linejoin="round"/>
</svg>
